<svg width="465" height="465" viewBox="0 0 465 465" fill="none" xmlns="http://www.w3.org/2000/svg">
<g filter="url(#filter0_ddd_1382_11170)">
<path d="M407.139 305.326C368.892 402.89 326.187 415.764 197.269 421.679C88.0684 426.69 48.9831 364.077 43.9576 187.93C40.6552 72.1769 209.085 11.1437 313.989 66.9076C374.86 99.2649 456.739 178.801 407.139 305.326Z" fill="#ECB14A"/>
<path d="M43.9574 187.93C40.655 72.1772 209.085 11.144 313.989 66.9079C374.861 99.2651 456.741 178.801 407.141 305.326L405.342 309.837C368.735 400.323 326.921 414.978 209.105 421.103L197.271 421.679C89.776 426.612 50.223 366.018 44.2195 196.105L43.9574 187.93ZM309.431 74.2017C259.712 47.7727 194.354 48.8598 141.732 70.7093C89.207 92.5183 51.2894 134.031 52.8121 187.414C55.3226 275.409 66.3841 333.143 89.1513 368.213C100.365 385.486 114.384 397.188 131.759 404.39C149.262 411.646 170.726 414.566 197.148 413.353C261.922 410.381 302.737 405.645 332.187 390.578C360.825 375.925 380.01 350.716 398.84 302.683C422.755 241.678 414.87 192.583 394.095 154.843C373.162 116.816 338.851 89.8409 309.431 74.2017Z" fill="black"/>
<path d="M183.141 190.117L163.185 181.622C161.119 180.743 160.213 178.379 161.162 176.344C162.112 174.308 164.556 173.371 166.623 174.251L186.578 182.746C188.645 183.625 189.55 185.989 188.601 188.024C187.652 190.06 185.207 190.997 183.141 190.117Z" fill="black"/>
<path d="M239.476 168.272L252.602 151.006C253.961 149.218 256.554 148.813 258.394 150.101C260.233 151.389 260.623 153.883 259.264 155.671L246.139 172.937C244.779 174.725 242.186 175.13 240.347 173.842C238.507 172.553 238.117 170.06 239.476 168.272Z" fill="black"/>
<path d="M212.648 182.623C213.788 181.163 215.792 180.648 217.511 181.416L241.069 191.943C243.12 192.86 244.038 195.263 243.122 197.314C242.206 199.364 239.802 200.283 237.752 199.366L217.379 190.263L206.168 207.679C204.952 209.567 202.437 210.112 200.549 208.896C198.661 207.681 198.116 205.166 199.331 203.278L212.434 182.927L212.648 182.623Z" fill="black"/>
<path d="M400.888 218.447C405.702 254.728 380.402 313.763 370.973 319.861C361.543 325.959 375.239 278.354 375.948 243.995C376.491 217.676 365.622 195.328 366.808 175.11C367.681 160.225 396.074 182.166 400.888 218.447Z" fill="#E8A125"/>
<path d="M65.2413 184.598C67.2524 215.966 72.4373 250.668 83.4846 252.683C94.5318 254.697 81.5233 245.909 77.2384 213.66C73.0972 182.493 91.0767 147.171 87.2176 132.769C83.3584 118.366 63.2301 153.23 65.2413 184.598Z" fill="#E8A125"/>
</g>
<defs>
<filter id="filter0_ddd_1382_11170" x="-20" y="-7.99983" width="504.844" height="508.844" filterUnits="userSpaceOnUse" color-interpolation-filters="sRGB">
<feFlood flood-opacity="0" result="BackgroundImageFix"/>
<feColorMatrix in="SourceAlpha" type="matrix" values="0 0 0 0 0 0 0 0 0 0 0 0 0 0 0 0 0 0 127 0" result="hardAlpha"/>
<feOffset/>
<feGaussianBlur stdDeviation="4"/>
<feComposite in2="hardAlpha" operator="out"/>
<feColorMatrix type="matrix" values="0 0 0 0 0 0 0 0 0 0 0 0 0 0 0 0 0 0 0.08 0"/>
<feBlend mode="normal" in2="BackgroundImageFix" result="effect1_dropShadow_1382_11170"/>
<feColorMatrix in="SourceAlpha" type="matrix" values="0 0 0 0 0 0 0 0 0 0 0 0 0 0 0 0 0 0 127 0" result="hardAlpha"/>
<feOffset dy="8"/>
<feGaussianBlur stdDeviation="8"/>
<feComposite in2="hardAlpha" operator="out"/>
<feColorMatrix type="matrix" values="0 0 0 0 0 0 0 0 0 0 0 0 0 0 0 0 0 0 0.08 0"/>
<feBlend mode="normal" in2="effect1_dropShadow_1382_11170" result="effect2_dropShadow_1382_11170"/>
<feColorMatrix in="SourceAlpha" type="matrix" values="0 0 0 0 0 0 0 0 0 0 0 0 0 0 0 0 0 0 127 0" result="hardAlpha"/>
<feOffset dy="16"/>
<feGaussianBlur stdDeviation="10"/>
<feComposite in2="hardAlpha" operator="out"/>
<feColorMatrix type="matrix" values="0 0 0 0 0 0 0 0 0 0 0 0 0 0 0 0 0 0 0.12 0"/>
<feBlend mode="normal" in2="effect2_dropShadow_1382_11170" result="effect3_dropShadow_1382_11170"/>
<feBlend mode="normal" in="SourceGraphic" in2="effect3_dropShadow_1382_11170" result="shape"/>
</filter>
</defs>
</svg>
