<svg width="286" height="287" viewBox="0 0 286 287" fill="none" xmlns="http://www.w3.org/2000/svg">
<g filter="url(#filter0_ddd_1382_11173)">
<path d="M190.051 250.615C103.08 243.92 87.2453 264.877 49.7984 223.508C12.3515 182.14 23.312 72.5514 67.396 48.4457C112.611 26.936 179.988 13.655 217.435 55.0236C231.623 70.6976 255.192 113.31 255.755 145.663C256.596 193.994 236.389 251.375 190.051 250.615Z" fill="#ECB14A"/>
<path d="M67.3963 48.4457C112.611 26.9361 179.988 13.6552 217.435 55.0236C231.624 70.6977 255.192 113.31 255.755 145.663C256.596 193.993 236.39 251.375 190.052 250.616L186.027 250.321C103.905 244.651 87.1824 263.612 51.5378 225.402L49.7989 223.508C12.6445 182.463 23.1434 74.2601 66.3683 49.0264L67.3963 48.4457ZM213.555 58.1143C196.226 38.971 171.831 32.2184 145.67 33.0249C119.5 33.8319 92.1367 42.2255 69.9855 52.7438C60.2776 58.0967 51.925 68.4406 45.5251 82.2294C39.1367 95.9937 34.9099 112.736 33.1654 130.125C31.4216 147.506 32.1777 165.348 35.6114 181.278C39.0581 197.268 45.1214 210.965 53.6788 220.419C62.7944 230.489 70.275 236.402 77.5306 239.943C84.7185 243.45 92.0957 244.83 101.395 245.197C110.912 245.572 121.804 244.886 136.395 244.502C150.772 244.123 168.207 244.066 190.103 245.744C210.481 246.022 225.686 233.665 235.958 214.256C246.25 194.809 251.002 169.183 250.591 145.578C250.326 130.337 244.592 112.295 236.984 95.916C229.381 79.5461 220.196 65.4508 213.555 58.1143Z" fill="black"/>
<path d="M134.227 93.9197L121.366 90.4733C120.034 90.1165 119.243 88.7474 119.6 87.4155C119.957 86.0836 121.326 85.2932 122.658 85.6501L135.52 89.0965C136.852 89.4533 137.642 90.8224 137.285 92.1543C136.928 93.4861 135.559 94.2766 134.227 93.9197Z" fill="black"/>
<path d="M169.286 98.1267L182.148 101.573C183.48 101.93 184.271 103.299 183.914 104.631C183.557 105.963 182.188 106.753 180.856 106.396L167.994 102.95C166.662 102.593 165.872 101.224 166.229 99.8921C166.585 98.5602 167.955 97.7698 169.286 98.1267Z" fill="black"/>
<path d="M147.424 124.286C137.79 126.737 134.34 121.191 134.34 121.191L145.052 102.763L156.453 100.219C156.453 100.219 156.017 122.101 147.424 124.286Z" fill="white"/>
<path d="M156.579 97.5544C157.327 97.3878 158.109 97.5741 158.702 98.0592C159.295 98.5444 159.633 99.2747 159.617 100.041L159.619 100.049C159.619 100.053 159.618 100.058 159.618 100.064C159.617 100.077 159.617 100.097 159.616 100.12C159.615 100.167 159.613 100.234 159.61 100.32C159.604 100.492 159.595 100.74 159.58 101.054C159.55 101.682 159.498 102.576 159.407 103.653C159.227 105.8 158.893 108.709 158.275 111.709C157.662 114.684 156.744 117.886 155.336 120.545C153.951 123.158 151.86 125.676 148.709 126.477C143.339 127.843 139.432 127.026 136.783 125.642C135.486 124.964 134.548 124.181 133.92 123.543C133.606 123.224 133.368 122.939 133.199 122.72C133.115 122.611 133.046 122.518 132.995 122.443C132.97 122.406 132.949 122.373 132.931 122.346C132.923 122.333 132.915 122.321 132.908 122.31C132.905 122.305 132.9 122.3 132.898 122.295C132.896 122.293 132.894 122.29 132.893 122.288L132.891 122.285C132.89 122.283 132.907 122.271 135.009 120.963L132.889 122.282C132.401 121.497 132.387 120.506 132.851 119.707L143.563 101.279L143.705 101.062C144.061 100.575 144.584 100.23 145.178 100.098L156.579 97.5544ZM147.33 104.733L138.111 120.593C138.381 120.798 138.707 121.014 139.095 121.217C140.579 121.993 143.214 122.723 147.477 121.639C148.622 121.348 149.808 120.311 150.922 118.207C152.013 116.149 152.814 113.47 153.384 110.701C153.949 107.958 154.261 105.26 154.431 103.236C154.434 103.206 154.435 103.176 154.437 103.146L147.33 104.733Z" fill="black"/>
<path d="M102.015 231.617C97.0594 237.888 69.9631 225.574 61.6091 210.588C53.7466 196.484 40.1383 178.819 45.0939 172.548C50.0495 166.276 72.5362 192.034 78.9986 197.141C85.461 202.247 106.971 225.346 102.015 231.617Z" fill="#E8A125"/>
<path d="M151.058 39.2288C155.396 34.4188 187.598 36.8915 204.026 58.8869C219.487 79.5884 232.947 91.8637 228.608 96.6736C224.27 101.484 194.255 69.1896 183.86 59.8142C173.465 50.4388 146.72 44.0387 151.058 39.2288Z" fill="#E8A125"/>
</g>
<defs>
<filter id="filter0_ddd_1382_11173" x="-19.9999" y="-8" width="325.394" height="329.394" filterUnits="userSpaceOnUse" color-interpolation-filters="sRGB">
<feFlood flood-opacity="0" result="BackgroundImageFix"/>
<feColorMatrix in="SourceAlpha" type="matrix" values="0 0 0 0 0 0 0 0 0 0 0 0 0 0 0 0 0 0 127 0" result="hardAlpha"/>
<feOffset/>
<feGaussianBlur stdDeviation="4"/>
<feComposite in2="hardAlpha" operator="out"/>
<feColorMatrix type="matrix" values="0 0 0 0 0 0 0 0 0 0 0 0 0 0 0 0 0 0 0.08 0"/>
<feBlend mode="normal" in2="BackgroundImageFix" result="effect1_dropShadow_1382_11173"/>
<feColorMatrix in="SourceAlpha" type="matrix" values="0 0 0 0 0 0 0 0 0 0 0 0 0 0 0 0 0 0 127 0" result="hardAlpha"/>
<feOffset dy="8"/>
<feGaussianBlur stdDeviation="8"/>
<feComposite in2="hardAlpha" operator="out"/>
<feColorMatrix type="matrix" values="0 0 0 0 0 0 0 0 0 0 0 0 0 0 0 0 0 0 0.08 0"/>
<feBlend mode="normal" in2="effect1_dropShadow_1382_11173" result="effect2_dropShadow_1382_11173"/>
<feColorMatrix in="SourceAlpha" type="matrix" values="0 0 0 0 0 0 0 0 0 0 0 0 0 0 0 0 0 0 127 0" result="hardAlpha"/>
<feOffset dy="16"/>
<feGaussianBlur stdDeviation="10"/>
<feComposite in2="hardAlpha" operator="out"/>
<feColorMatrix type="matrix" values="0 0 0 0 0 0 0 0 0 0 0 0 0 0 0 0 0 0 0.12 0"/>
<feBlend mode="normal" in2="effect2_dropShadow_1382_11173" result="effect3_dropShadow_1382_11173"/>
<feBlend mode="normal" in="SourceGraphic" in2="effect3_dropShadow_1382_11173" result="shape"/>
</filter>
</defs>
</svg>
