<svg width="304" height="312" viewBox="0 0 304 312" fill="none" xmlns="http://www.w3.org/2000/svg">
<g filter="url(#filter0_ddd_1382_11171)">
<path d="M275.324 149.035C284.831 228.68 216.498 275.371 145.12 275.903C73.7419 276.435 25.2275 208.74 25.7594 139.205C26.5162 40.2853 145.269 12.5438 190.339 36.1732C259.928 72.6576 268.102 88.5274 275.324 149.035Z" fill="#ECB14A"/>
<path d="M25.7599 139.205C26.5169 40.2853 145.27 12.5436 190.339 36.1729C259.928 72.6573 268.102 88.5283 275.325 149.036L275.534 150.896C283.764 229.406 215.94 275.375 145.12 275.903C74.2992 276.431 25.9867 209.793 25.756 140.834L25.7599 139.205ZM145.902 33.9071C129.146 34.6964 110.795 38.868 93.7956 46.7143C59.9099 62.3545 31.7889 92.3066 31.4304 139.161C30.913 206.846 78.0211 270.883 145.165 270.383C179.679 270.125 213.188 258.696 236.801 238.054C260.255 217.55 274.227 187.749 269.692 149.756C266.075 119.457 262.307 101.662 251.566 86.8206C240.749 71.8739 222.396 59.2908 187.59 41.0422C177.505 35.7552 162.746 33.1137 145.902 33.9071Z" fill="black"/>
<path d="M119.893 105.127L106.234 108.787C104.819 109.166 103.365 108.327 102.986 106.912C102.607 105.498 103.447 104.044 104.861 103.665L118.521 100.005C119.935 99.626 121.389 100.465 121.768 101.88C122.147 103.294 121.308 104.748 119.893 105.127Z" fill="black"/>
<path d="M150.051 91.798L163.711 88.1379C165.125 87.7589 166.579 88.5983 166.958 90.0128C167.337 91.4273 166.498 92.8812 165.083 93.2602L151.424 96.9203C150.009 97.2993 148.555 96.4599 148.176 95.0454C147.797 93.6309 148.637 92.177 150.051 91.798Z" fill="black"/>
<path d="M132.87 110.171C120.302 109.762 118.281 135.04 126.625 139.102C134.969 143.163 166.124 144.177 157.153 118.763C148.182 93.3487 144.08 110.537 132.87 110.171Z" fill="white"/>
<path d="M145.201 102.926C146.377 102.57 147.691 102.428 149.077 102.808C150.456 103.187 151.682 104.02 152.798 105.226C154.954 107.556 157.014 111.628 159.269 118.015C161.64 124.733 161.502 130.127 159.328 134.275C157.167 138.399 153.243 140.813 149.053 142.126C144.859 143.44 140.168 143.73 136.024 143.448C131.915 143.169 128.086 142.308 125.643 141.119C122.705 139.688 121.005 136.593 120.146 133.392C119.267 130.115 119.131 126.269 119.687 122.621C120.242 118.985 121.516 115.344 123.64 112.581C125.806 109.764 128.928 107.798 132.943 107.929C135.143 108 137.072 107.224 139.045 106.132C140.122 105.536 140.901 105.032 141.998 104.403C142.974 103.843 144.06 103.272 145.201 102.926ZM146.502 107.221C145.869 107.413 145.146 107.771 144.231 108.296C143.438 108.751 142.244 109.49 141.219 110.057C138.99 111.291 136.202 112.525 132.797 112.413C130.528 112.339 128.685 113.381 127.198 115.316C125.669 117.304 124.603 120.158 124.124 123.298C123.647 126.425 123.784 129.636 124.48 132.229C125.196 134.897 126.373 136.484 127.606 137.085C129.335 137.926 132.53 138.714 136.328 138.973C140.092 139.229 144.194 138.946 147.711 137.845C151.231 136.742 153.935 134.898 155.354 132.192C156.76 129.509 157.152 125.499 155.037 119.509C152.807 113.19 150.991 109.881 149.505 108.274C148.799 107.512 148.262 107.238 147.89 107.135C147.525 107.035 147.1 107.04 146.502 107.221Z" fill="black"/>
<path d="M109.48 237.258C126.272 241.478 124.627 252.092 114.203 254.885C103.78 257.678 66.6189 230.719 62.4052 214.994C58.1915 199.268 68.2864 208.33 76.0348 217.155C86.3649 228.919 96.1287 233.902 109.48 237.258Z" fill="#E8A125"/>
<path d="M206.929 62.9086C220.869 73.035 237.806 78.1475 233.899 83.5248C229.993 88.902 211.7 86.1583 197.76 76.0319C183.82 65.9055 173.675 55.1421 177.581 49.7648C181.487 44.3876 192.989 52.7822 206.929 62.9086Z" fill="#E8A125"/>
</g>
<defs>
<filter id="filter0_ddd_1382_11171" x="-20" y="-8" width="343.093" height="347.093" filterUnits="userSpaceOnUse" color-interpolation-filters="sRGB">
<feFlood flood-opacity="0" result="BackgroundImageFix"/>
<feColorMatrix in="SourceAlpha" type="matrix" values="0 0 0 0 0 0 0 0 0 0 0 0 0 0 0 0 0 0 127 0" result="hardAlpha"/>
<feOffset/>
<feGaussianBlur stdDeviation="4"/>
<feComposite in2="hardAlpha" operator="out"/>
<feColorMatrix type="matrix" values="0 0 0 0 0 0 0 0 0 0 0 0 0 0 0 0 0 0 0.08 0"/>
<feBlend mode="normal" in2="BackgroundImageFix" result="effect1_dropShadow_1382_11171"/>
<feColorMatrix in="SourceAlpha" type="matrix" values="0 0 0 0 0 0 0 0 0 0 0 0 0 0 0 0 0 0 127 0" result="hardAlpha"/>
<feOffset dy="8"/>
<feGaussianBlur stdDeviation="8"/>
<feComposite in2="hardAlpha" operator="out"/>
<feColorMatrix type="matrix" values="0 0 0 0 0 0 0 0 0 0 0 0 0 0 0 0 0 0 0.08 0"/>
<feBlend mode="normal" in2="effect1_dropShadow_1382_11171" result="effect2_dropShadow_1382_11171"/>
<feColorMatrix in="SourceAlpha" type="matrix" values="0 0 0 0 0 0 0 0 0 0 0 0 0 0 0 0 0 0 127 0" result="hardAlpha"/>
<feOffset dy="16"/>
<feGaussianBlur stdDeviation="10"/>
<feComposite in2="hardAlpha" operator="out"/>
<feColorMatrix type="matrix" values="0 0 0 0 0 0 0 0 0 0 0 0 0 0 0 0 0 0 0.12 0"/>
<feBlend mode="normal" in2="effect2_dropShadow_1382_11171" result="effect3_dropShadow_1382_11171"/>
<feBlend mode="normal" in="SourceGraphic" in2="effect3_dropShadow_1382_11171" result="shape"/>
</filter>
</defs>
</svg>
