<svg width="483" height="483" viewBox="0 0 483 483" fill="none" xmlns="http://www.w3.org/2000/svg">
<g filter="url(#filter0_ddd_1382_11172)">
<path d="M284.932 440.491C198.67 454.385 184.045 413.458 80.5044 385.715C-23.0359 357.971 39.6514 213.336 98.5231 111.24C124.605 66.0071 174.386 30.1356 222.366 35.5045C283.8 42.379 410.492 85.9129 428.021 147.307C463.908 272.999 412.179 419.995 284.932 440.491Z" fill="#ECB14A"/>
<path d="M222.367 35.5044C283.802 42.3792 410.491 85.9131 428.02 147.307C463.907 272.998 412.178 419.994 284.931 440.489C198.669 454.383 184.044 413.457 80.5041 385.713C-21.4174 358.403 37.734 217.828 95.7621 116.057L98.5239 111.24C124.199 66.7141 172.836 31.2582 220.116 35.2825L222.367 35.5044ZM338.083 78.6091C297.299 59.547 251.155 47.2208 221.428 43.8942C178.052 39.0405 130.989 71.8368 105.837 115.456C76.4689 166.386 46.7049 227.038 36.8999 277.955C31.9958 303.422 32.3005 325.413 39.179 342.297C45.841 358.648 59.0768 371.231 82.6894 377.558C135.277 391.649 165.945 409.343 192.579 420.979C218.767 432.42 242.344 438.797 283.588 432.154C343.884 422.442 386.511 382.845 409.93 329.931C433.421 276.855 437.346 210.723 419.902 149.624C416.166 136.542 406.348 123.643 391.709 111.376C377.149 99.1762 358.444 88.1257 338.083 78.6091Z" fill="black"/>
<path d="M296.99 156.204C299.261 155.677 301.53 157.089 302.057 159.36C302.585 161.631 301.172 163.899 298.901 164.427L282.275 168.286L294.834 178.83C296.619 180.33 296.851 182.994 295.352 184.779C293.852 186.564 291.188 186.796 289.403 185.297L270.374 169.32C269.15 168.291 268.613 166.659 268.986 165.104C269.358 163.549 270.577 162.337 272.134 161.975L296.99 156.204Z" fill="black"/>
<path d="M219.473 134.318C221.065 132.615 223.736 132.526 225.439 134.118L244.079 151.544C245.247 152.637 245.697 154.295 245.242 155.828C244.787 157.361 243.506 158.507 241.931 158.785L217.464 163.107C215.168 163.513 212.976 161.98 212.57 159.685C212.165 157.389 213.697 155.197 215.993 154.791L232.139 151.939L219.672 140.284C217.97 138.692 217.881 136.021 219.473 134.318Z" fill="black"/>
<path d="M271.999 182.5L234.668 169.584C234.668 169.584 217.843 216.065 236.144 223.882C254.445 231.7 271.999 182.5 271.999 182.5Z" fill="white"/>
<path d="M236.049 165.595L273.38 178.511C274.445 178.88 275.318 179.659 275.805 180.675C276.292 181.69 276.353 182.858 275.975 183.918L275.97 183.934C275.968 183.942 275.964 183.952 275.959 183.965C275.949 183.993 275.934 184.034 275.916 184.085C275.879 184.186 275.826 184.332 275.757 184.52C275.617 184.896 275.41 185.44 275.144 186.126C274.613 187.496 273.837 189.435 272.848 191.733C270.876 196.317 268.031 202.397 264.571 208.267C261.15 214.068 256.946 219.981 252.168 223.959C247.374 227.951 241.155 230.615 234.486 227.766C228.053 225.018 225.158 218.988 224.039 212.86C222.92 206.727 223.384 199.644 224.371 193.167C225.367 186.627 226.949 180.382 228.27 175.8C228.933 173.501 229.534 171.604 229.973 170.275C230.192 169.61 230.371 169.086 230.496 168.725C230.559 168.544 230.608 168.403 230.642 168.306C230.659 168.258 230.671 168.22 230.681 168.194C230.685 168.181 230.689 168.17 230.692 168.163C230.693 168.159 230.697 168.155 230.698 168.153C230.708 168.155 230.901 168.22 234.668 169.584L230.699 168.147C231.485 165.977 233.868 164.84 236.049 165.595ZM237.333 174.97C237.044 175.896 236.721 176.961 236.382 178.138C235.12 182.515 233.64 188.38 232.718 194.436C231.786 200.556 231.473 206.56 232.345 211.341C233.219 216.125 235.085 218.838 237.802 219.999C240.283 221.059 243.121 220.504 246.765 217.469C250.426 214.421 254.042 209.5 257.297 203.979C260.513 198.525 263.2 192.795 265.092 188.397C265.623 187.161 266.086 186.034 266.482 185.057L237.333 174.97Z" fill="black"/>
<path d="M149.304 372.522C142.264 398.796 112.004 372.725 84.2285 365.283C56.4527 357.84 32.9445 322.885 39.9847 296.611C47.0249 270.336 45.1762 236.814 72.9519 244.257C100.728 251.699 156.344 346.247 149.304 372.522Z" fill="#E8A125"/>
<path d="M415.16 152.389C421.426 174.463 429.292 233.388 413.527 229.164C397.763 224.94 391.636 191.248 376.808 159.594C364.321 132.939 328.038 88.2527 343.803 92.4768C359.567 96.7009 404.867 116.123 415.16 152.389Z" fill="#E8A125"/>
</g>
<defs>
<filter id="filter0_ddd_1382_11172" x="-20" y="-8" width="522.571" height="526.571" filterUnits="userSpaceOnUse" color-interpolation-filters="sRGB">
<feFlood flood-opacity="0" result="BackgroundImageFix"/>
<feColorMatrix in="SourceAlpha" type="matrix" values="0 0 0 0 0 0 0 0 0 0 0 0 0 0 0 0 0 0 127 0" result="hardAlpha"/>
<feOffset/>
<feGaussianBlur stdDeviation="4"/>
<feComposite in2="hardAlpha" operator="out"/>
<feColorMatrix type="matrix" values="0 0 0 0 0 0 0 0 0 0 0 0 0 0 0 0 0 0 0.08 0"/>
<feBlend mode="normal" in2="BackgroundImageFix" result="effect1_dropShadow_1382_11172"/>
<feColorMatrix in="SourceAlpha" type="matrix" values="0 0 0 0 0 0 0 0 0 0 0 0 0 0 0 0 0 0 127 0" result="hardAlpha"/>
<feOffset dy="8"/>
<feGaussianBlur stdDeviation="8"/>
<feComposite in2="hardAlpha" operator="out"/>
<feColorMatrix type="matrix" values="0 0 0 0 0 0 0 0 0 0 0 0 0 0 0 0 0 0 0.08 0"/>
<feBlend mode="normal" in2="effect1_dropShadow_1382_11172" result="effect2_dropShadow_1382_11172"/>
<feColorMatrix in="SourceAlpha" type="matrix" values="0 0 0 0 0 0 0 0 0 0 0 0 0 0 0 0 0 0 127 0" result="hardAlpha"/>
<feOffset dy="16"/>
<feGaussianBlur stdDeviation="10"/>
<feComposite in2="hardAlpha" operator="out"/>
<feColorMatrix type="matrix" values="0 0 0 0 0 0 0 0 0 0 0 0 0 0 0 0 0 0 0.12 0"/>
<feBlend mode="normal" in2="effect2_dropShadow_1382_11172" result="effect3_dropShadow_1382_11172"/>
<feBlend mode="normal" in="SourceGraphic" in2="effect3_dropShadow_1382_11172" result="shape"/>
</filter>
</defs>
</svg>
