<svg width="168" height="46" viewBox="0 0 168 46" fill="none" xmlns="http://www.w3.org/2000/svg">
<path d="M2.04808 0.319778C2.64541 0.106445 3.07208 0.0211118 3.32808 0.0637779C3.58408 0.106447 4.90674 0.19178 7.29608 0.319778C9.68541 0.405113 11.1147 0.51178 11.5841 0.639778C12.0107 0.767779 12.6507 0.853113 13.5041 0.895779C14.2294 0.895779 14.6987 0.959779 14.9121 1.08778C15.1254 1.17311 15.3601 1.47178 15.6161 1.98378C15.7867 2.36778 16.0641 2.60245 16.4481 2.68778C16.7041 2.77311 16.8961 2.92245 17.0241 3.13578C17.1947 3.34911 17.3441 3.77578 17.4721 4.41578C17.7707 5.52511 17.8347 6.33578 17.6641 6.84778C17.5361 7.18911 17.4294 7.89311 17.3441 8.95978C17.1734 11.1784 16.4907 12.8424 15.2961 13.9518C15.1254 14.1224 14.8054 14.4211 14.3361 14.8478C13.8667 15.2744 13.5254 15.5731 13.3121 15.7438C12.1601 16.8531 10.6454 17.9411 8.76808 19.0078C8.12808 19.3491 7.74408 19.6264 7.61608 19.8398C7.23208 20.3944 6.67741 20.6718 5.95208 20.6718C5.65341 20.6718 5.16274 20.8211 4.48008 21.1198C3.84008 21.4184 3.37074 21.5464 3.07208 21.5038C2.77341 21.4611 2.36808 21.2264 1.85608 20.7998C1.34408 20.3731 1.04541 20.1598 0.960076 20.1598C0.874743 20.1598 0.746743 19.9678 0.576076 19.5838C0.320076 18.9864 0.448076 18.2611 0.960076 17.4078C1.51474 16.5544 2.11208 16.1278 2.75208 16.1278C3.39208 16.1278 4.35208 15.6158 5.63208 14.5918C6.86941 13.6104 8.00008 12.9064 9.02408 12.4798C10.6881 11.8398 11.6481 10.5811 11.9041 8.70378C11.9894 8.14911 12.1174 7.72245 12.2881 7.42378C12.7147 6.61311 12.3094 6.05845 11.0721 5.75978C10.2614 5.54645 9.28008 5.58911 8.12808 5.88778C7.44541 6.05845 6.80541 6.07978 6.20808 5.95178C5.61074 5.82378 5.03474 5.86645 4.48008 6.07978C3.66941 6.33578 2.85874 6.37845 2.04808 6.20778C1.28008 5.99445 0.832076 5.65311 0.704076 5.18378C0.66141 4.92778 0.554743 4.56511 0.384076 4.09578C0.128076 3.54111 0.0427429 2.90111 0.128076 2.17578C0.256076 1.40778 0.512076 0.95978 0.896076 0.831779C1.19474 0.703779 1.57874 0.533112 2.04808 0.319778ZM25.6641 1.27978C25.8347 1.06644 26.1334 0.981112 26.5601 1.02378C26.9867 1.06645 27.3494 1.23711 27.6481 1.53578C27.9467 1.83445 28.2667 1.98378 28.6081 1.98378C30.0161 1.98378 30.5494 3.51978 30.2081 6.59178C30.1227 7.44511 30.2507 7.93578 30.5921 8.06378C30.9334 8.19178 31.8081 8.10645 33.2161 7.80778C33.8561 7.63711 34.4961 7.63711 35.1361 7.80778C35.8187 7.97845 36.3947 8.04244 36.8641 7.99978C37.3334 7.99978 37.6321 8.08511 37.7601 8.25578C37.9307 8.42645 38.0587 8.89578 38.1441 9.66378C38.3574 10.9438 38.1014 11.8824 37.3761 12.4798C36.6507 13.0344 35.6054 13.1624 34.2401 12.8638C33.4294 12.6931 32.4694 12.6718 31.3601 12.7998L29.7601 13.0558L29.3761 14.0798C29.1201 14.7198 29.0347 15.4451 29.1201 16.2558C29.1627 16.8531 29.0987 17.6638 28.9281 18.6878C28.8001 19.6691 28.6507 20.4158 28.4801 20.9278C28.3947 21.1838 28.0321 21.4611 27.3921 21.7598C26.5814 22.1011 25.8347 22.1438 25.1521 21.8878C24.5121 21.5891 24.1921 21.0984 24.1921 20.4158C24.1921 20.0318 24.0854 19.6478 23.8721 19.2638C23.6161 18.7944 23.4667 18.4104 23.4241 18.1118C23.4241 17.8131 23.5307 17.3438 23.7441 16.7038C24.0427 15.8078 24.2134 14.2504 24.2561 12.0318C24.2561 9.81311 24.2987 8.19178 24.3841 7.16778C24.3841 7.12511 24.4267 6.14378 24.5121 4.22378C24.5547 3.07178 24.9387 2.09045 25.6641 1.27978ZM20.9281 25.4078C21.0987 25.2371 22.1014 25.2371 23.9361 25.4078C25.8134 25.5358 27.0081 25.7064 27.5201 25.9198C28.2027 26.2611 28.7574 26.4744 29.1841 26.5598C29.9521 26.6878 30.6134 27.2424 31.1681 28.2238C31.7227 29.2051 32.0001 30.2931 32.0001 31.4878C32.0001 32.4264 32.0854 33.2798 32.2561 34.0478C32.4267 34.8158 32.4481 35.8184 32.3201 37.0558C32.2347 38.2504 32.0427 39.2104 31.7441 39.9358C31.4454 40.6611 31.2961 41.3011 31.2961 41.8558C31.2961 42.5384 31.2321 42.9651 31.1041 43.1358C30.9761 43.3491 30.5067 43.6264 29.6961 43.9678C28.7574 44.3944 28.0321 44.5864 27.5201 44.5438C27.0081 44.4584 26.3041 44.5651 25.4081 44.8638C24.5547 45.1624 23.7227 45.2904 22.9121 45.2478C21.8881 45.1198 20.6507 45.0558 19.2001 45.0558C17.7494 45.0984 16.7467 45.1838 16.1921 45.3118C15.5094 45.4824 14.8481 45.4611 14.2081 45.2478C13.6107 45.0344 12.9067 44.9918 12.0961 45.1198C10.8161 45.3331 9.77074 45.2264 8.96008 44.7998C8.61874 44.5864 8.19208 44.4371 7.68008 44.3518C7.29608 44.3091 6.84808 44.1598 6.33608 43.9038C5.86674 43.6478 5.63208 43.4558 5.63208 43.3278C5.63208 43.1998 5.31208 42.7944 4.67208 42.1118C3.98941 41.4291 3.52008 40.6824 3.26408 39.8718C3.05074 39.1038 2.79474 38.4424 2.49608 37.8878C2.28274 37.4184 2.15474 36.9918 2.11208 36.6078C2.11208 36.2238 2.13341 35.0078 2.17608 32.9598C2.17608 31.5091 2.21874 30.5278 2.30408 30.0158C2.43208 29.5038 2.73074 28.8638 3.20008 28.0958C3.66941 27.3278 4.07474 26.8371 4.41608 26.6238C4.80008 26.3678 5.35474 26.2398 6.08008 26.2398C7.01874 26.1971 7.72274 26.1331 8.19208 26.0478C8.83208 25.9624 9.32274 25.9838 9.66408 26.1118C9.96274 26.2398 10.5814 26.1971 11.5201 25.9838C12.4587 25.7704 14.2507 25.6211 16.8961 25.5358C19.4987 25.4931 20.8427 25.4504 20.9281 25.4078ZM23.2321 30.2078C22.7627 30.0798 22.1014 30.0158 21.2481 30.0158C20.3947 29.9731 19.8187 30.0158 19.5201 30.1438C19.2214 30.2718 18.6454 30.3144 17.7921 30.2718C16.9814 30.1864 16.1067 30.2291 15.1681 30.3998C12.1387 30.9118 10.2401 31.1678 9.47208 31.1678C8.96008 31.1678 8.59741 31.2744 8.38408 31.4878C8.21341 31.7011 8.08541 32.1278 8.00008 32.7678C7.87208 33.5784 7.87208 34.5384 8.00008 35.6478C8.12808 36.7144 8.34141 37.6104 8.64008 38.3358C8.85341 38.8051 9.68541 39.2104 11.1361 39.5518C12.6294 39.8931 14.2507 40.0424 16.0001 39.9998C16.8534 39.9571 17.4934 40.0424 17.9201 40.2558C18.2614 40.3411 19.3494 40.3624 21.1841 40.3198C23.0187 40.2771 24.2987 40.1918 25.0241 40.0638C26.2614 39.7651 26.8801 38.4211 26.8801 36.0318C26.8801 33.7278 26.7521 32.2344 26.4961 31.5518C26.2401 30.8264 25.6854 30.4638 24.8321 30.4638C24.3627 30.4638 23.8294 30.3784 23.2321 30.2078ZM53.3461 6.78378C56.2047 6.39978 58.1674 6.65578 59.2341 7.55178C59.5754 7.85045 59.8314 7.99978 60.0021 7.99978C60.6421 7.99978 61.2607 8.27711 61.8581 8.83178C62.4554 9.38645 62.8607 10.0478 63.0741 10.8158C63.1594 11.2851 63.3301 11.8184 63.5861 12.4158C63.7567 12.8851 63.8421 13.2051 63.8421 13.3758C63.8421 13.5038 63.7567 13.8238 63.5861 14.3358C63.3301 15.0611 63.2021 15.7438 63.2021 16.3838C63.2021 17.0238 63.1167 17.5358 62.9461 17.9198C62.7754 18.2611 62.0501 19.0291 60.7701 20.2238C59.5327 21.4184 58.7007 22.1224 58.2741 22.3358C57.3781 22.8051 57.0154 23.5091 57.1861 24.4478C57.3994 25.3438 58.1034 26.2398 59.2981 27.1358C59.9381 27.6478 60.4074 28.1171 60.7061 28.5438C61.4741 29.6104 61.9861 30.1438 62.2421 30.1438C62.6261 30.1438 62.8821 30.4638 63.0101 31.1038C63.1381 31.7438 63.1167 32.4691 62.9461 33.2798C62.8181 34.0478 62.5407 34.6238 62.1141 35.0078C61.6021 35.4771 60.8127 35.4771 59.7461 35.0078C58.6794 34.5384 57.7834 33.7704 57.0581 32.7038C56.7167 32.1918 56.3114 31.6798 55.8421 31.1678C55.3727 30.6131 55.0527 30.1651 54.8821 29.8238C54.5834 29.2691 54.1354 28.6291 53.5381 27.9038C52.9407 27.1784 52.5354 26.8158 52.3221 26.8158C52.2367 26.8158 51.9381 27.0504 51.4261 27.5198C50.9141 27.9891 50.4234 28.4158 49.9541 28.7998C48.6314 29.7811 47.6927 30.7198 47.1381 31.6158C46.8394 32.0851 46.3274 32.5118 45.6021 32.8958C44.8767 33.2798 44.2154 33.4718 43.6181 33.4718C43.3621 33.4718 42.9141 33.1304 42.2741 32.4478C41.6767 31.7224 41.3781 31.1891 41.3781 30.8478C41.3781 30.1224 41.5487 29.4398 41.8901 28.7998C42.2314 28.1171 42.6581 27.6478 43.1701 27.3918C43.7247 27.1358 44.2581 26.7091 44.7701 26.1118C45.5807 25.3011 46.8821 24.2984 48.6741 23.1038C49.4847 22.5491 50.4021 21.8024 51.4261 20.8638C52.4927 19.9251 53.0474 19.3278 53.0901 19.0718C53.1754 18.7304 53.4101 18.3891 53.7941 18.0478C54.1781 17.6638 54.5407 17.4078 54.8821 17.2798C55.2234 17.1944 55.5221 17.0024 55.7781 16.7038C56.0767 16.3624 56.2261 16.0211 56.2261 15.6798C56.2261 15.4664 56.4181 15.1251 56.8021 14.6558C57.5701 13.7598 57.2927 13.0344 55.9701 12.4798C54.4767 11.9251 52.7487 11.9678 50.7861 12.6078C50.0181 12.8638 49.1434 12.9704 48.1621 12.9278C47.0954 12.8424 46.3061 12.8638 45.7941 12.9918C45.2821 13.0771 44.8341 13.0344 44.4501 12.8638C43.8101 12.5651 43.4474 11.8611 43.3621 10.7518C43.2767 9.64245 43.5114 8.95978 44.0661 8.70378C44.2794 8.61845 44.6634 8.44778 45.2181 8.19178C45.6874 7.93578 46.2634 7.76511 46.9461 7.67978C47.5007 7.63711 48.2261 7.50911 49.1221 7.29578C49.8047 7.08245 50.5514 6.97578 51.3621 6.97578C52.2581 6.93311 52.9194 6.86911 53.3461 6.78378ZM70.7541 6.91178C71.1807 6.57045 71.9487 6.63445 73.0581 7.10378C73.7834 7.35978 74.2101 7.65844 74.3381 7.99978C74.5087 8.29845 74.6154 9.23711 74.6581 10.8158C74.6581 12.4798 74.7007 13.5891 74.7861 14.1438C74.8714 14.6558 74.8287 15.1891 74.6581 15.7438C74.4874 16.1704 74.4021 16.8318 74.4021 17.7278C74.4447 18.6238 74.5514 19.1784 74.7221 19.3918C74.8074 19.5198 75.0847 19.5624 75.5541 19.5198C76.0234 19.4344 76.4714 19.3064 76.8981 19.1358C78.0501 18.6238 79.1381 18.5598 80.1621 18.9438C80.6741 19.1571 81.1221 19.2424 81.5061 19.1998C82.1887 19.0718 82.6581 19.7544 82.9141 21.2478C83.1274 22.3998 82.8501 22.9758 82.0821 22.9758C81.9114 22.9758 81.5061 23.1464 80.8661 23.4878C80.1407 23.8718 79.5647 24.1064 79.1381 24.1918C78.7541 24.2344 78.0501 24.2344 77.0261 24.1918C75.5327 24.1064 74.6367 24.1278 74.3381 24.2558C74.0394 24.3411 73.8901 24.6824 73.8901 25.2798C73.8901 25.9198 73.7621 26.5811 73.5061 27.2638C73.2927 27.9038 73.2501 28.4584 73.3781 28.9278C73.4634 29.2691 73.5061 30.7411 73.5061 33.3438C73.5487 35.9038 73.5274 37.3118 73.4421 37.5678C73.3567 37.7384 72.9514 38.0798 72.2261 38.5918C71.5434 39.0611 71.0954 39.2958 70.8821 39.2958C70.3274 39.2958 69.8367 39.1038 69.4101 38.7198C68.9834 38.3358 68.7914 37.8878 68.8341 37.3758C68.8767 36.9918 68.7701 36.4158 68.5141 35.6478C68.2581 34.8798 68.2154 34.3038 68.3861 33.9198C68.5141 33.5358 68.5141 32.6824 68.3861 31.3598C68.2581 30.0371 68.2794 29.1411 68.4501 28.6718C68.6634 28.2024 68.7274 27.6691 68.6421 27.0718C68.5994 26.4318 68.7061 25.7278 68.9621 24.9598C69.1754 24.4051 69.3034 23.8504 69.3461 23.2958C69.3887 22.7411 69.3887 21.5678 69.3461 19.7758C69.3461 18.3678 69.4101 17.5358 69.5381 17.2798C69.6661 17.0238 69.7301 15.6798 69.7301 13.2478C69.7301 9.57845 70.0714 7.46645 70.7541 6.91178ZM123.119 9.91978C123.46 9.57845 124.1 9.45045 125.039 9.53578C125.977 9.62111 126.553 9.85578 126.767 10.2398C127.065 10.6664 127.279 11.6691 127.407 13.2478C127.577 14.7838 127.577 15.8291 127.407 16.3838C127.279 16.6824 127.129 18.3891 126.959 21.5038C126.745 24.5758 126.639 26.4744 126.639 27.1998C126.553 27.9678 126.596 28.9278 126.767 30.0798C126.937 31.3598 126.937 32.5331 126.767 33.5998C126.639 34.6238 126.404 35.2424 126.063 35.4558C125.252 35.8398 124.697 36.0531 124.399 36.0958C124.1 36.1384 123.759 36.0744 123.375 35.9038C122.948 35.6478 122.735 35.2851 122.735 34.8158C122.735 34.6451 122.585 34.2824 122.287 33.7278C122.073 33.3438 121.945 33.0024 121.903 32.7038C121.86 32.3624 121.86 31.5731 121.903 30.3358C121.903 29.3544 121.903 28.0531 121.903 26.4318C121.86 25.5358 121.903 24.9171 122.031 24.5758C122.159 24.1918 122.137 23.4878 121.967 22.4638C121.796 21.4398 121.753 20.6931 121.839 20.2238C122.009 19.6264 122.116 18.4744 122.159 16.7678C122.201 15.0611 122.159 13.9304 122.031 13.3758C121.903 12.7784 121.945 12.1598 122.159 11.5198C122.372 10.8371 122.692 10.3038 123.119 9.91978ZM115.183 10.8158C115.481 10.6451 115.737 10.5598 115.951 10.5598C116.164 10.5598 116.612 10.6451 117.295 10.8158C117.849 10.9438 118.191 11.1784 118.319 11.5198C118.489 11.8184 118.681 12.5651 118.895 13.7598C119.151 15.2104 119.215 16.2984 119.087 17.0238C118.959 17.7064 118.852 19.1571 118.767 21.3758C118.681 23.6798 118.596 25.0238 118.511 25.4078C118.383 25.8344 118.276 26.9651 118.191 28.7998C118.105 30.9758 117.913 32.5544 117.615 33.5358C117.359 34.5171 116.911 35.2211 116.271 35.6478C115.631 36.0744 115.033 36.2238 114.479 36.0958C113.967 35.9251 113.711 35.5624 113.711 35.0078C113.711 34.5811 113.561 34.0478 113.263 33.4078C112.964 32.7678 112.857 32.2558 112.943 31.8718C113.028 31.4024 113.113 30.5704 113.199 29.3758C113.284 28.1811 113.391 27.3918 113.519 27.0078C113.647 26.5811 113.625 26.1331 113.455 25.6638C113.284 25.1944 113.241 24.8104 113.327 24.5118C113.369 24.1278 113.071 23.8291 112.431 23.6158C111.833 23.3598 111.236 23.3171 110.639 23.4878C109.7 23.7011 108.783 23.7224 107.887 23.5518C106.991 23.3811 106.436 23.0398 106.223 22.5278C106.095 22.2718 105.732 21.9304 105.135 21.5038C104.239 20.8211 103.94 20.2024 104.239 19.6478C104.58 19.0931 105.391 18.8158 106.671 18.8158C107.439 18.8158 108.036 18.6664 108.463 18.3678C108.889 18.0691 109.465 17.8984 110.191 17.8558C112.409 17.8558 113.519 17.5144 113.519 16.8318C113.519 16.5331 113.583 16.1918 113.711 15.8078C113.839 15.4664 113.924 14.7411 113.967 13.6318C113.967 12.6931 114.031 12.0531 114.159 11.7118C114.329 11.3704 114.671 11.0718 115.183 10.8158ZM88.4946 10.9438C89.0919 10.6878 89.7959 10.6878 90.6066 10.9438C91.4599 11.1998 92.0359 11.6264 92.3346 12.2238C92.5479 12.6078 92.6332 13.4184 92.5906 14.6558C92.5479 15.8931 92.3986 16.9384 92.1426 17.7918C91.9719 18.3891 91.8439 19.4771 91.7586 21.0558C91.7159 22.5918 91.7799 23.5304 91.9506 23.8718C92.1212 24.2558 92.2919 24.9171 92.4626 25.8558C92.6759 26.9224 92.9106 27.6478 93.1666 28.0318C93.4226 28.4158 93.8066 28.6291 94.3186 28.6718C94.6599 28.6718 95.2146 28.7571 95.9826 28.9278C96.6226 29.0558 97.1986 29.1198 97.7106 29.1198C98.2226 29.0771 99.1612 28.9064 100.527 28.6078C101.252 28.4371 102.276 28.3944 103.599 28.4798C104.921 28.5651 105.689 28.7144 105.903 28.9278C106.159 29.2264 106.436 29.6958 106.735 30.3358C107.076 30.9331 107.247 31.3811 107.247 31.6798C107.247 32.4904 106.799 33.1944 105.903 33.7918C105.007 34.3464 104.111 34.5384 103.215 34.3678C102.66 34.2398 102.148 34.2184 101.679 34.3038C100.911 34.4744 99.9719 34.5384 98.8626 34.4958C97.7532 34.4531 96.9639 34.3251 96.4946 34.1118C96.1106 33.9411 95.8546 33.8558 95.7266 33.8558C95.5986 33.8558 95.3852 33.9198 95.0866 34.0478C94.7026 34.2184 94.4039 34.3038 94.1906 34.3038C94.0199 34.2611 93.6572 34.1118 93.1026 33.8558C92.4626 33.5998 91.9932 33.4931 91.6946 33.5358C91.1399 33.6638 90.3292 33.1944 89.2626 32.1278C88.1959 31.0611 87.4706 29.9944 87.0866 28.9278C86.7026 27.8184 86.4252 26.3464 86.2546 24.5118C86.1266 22.6344 86.1692 21.2691 86.3826 20.4158C86.5106 19.9464 86.6172 18.7091 86.7026 16.7038C86.7452 14.9544 86.8946 13.6531 87.1506 12.7998C87.4492 11.9038 87.8972 11.2851 88.4946 10.9438ZM141.052 1.72778C141.649 1.55711 142.609 1.53578 143.932 1.66378C145.255 1.74911 146.321 1.94111 147.132 2.23978C147.559 2.41045 148.092 2.49578 148.732 2.49578C149.415 2.49578 149.927 2.64511 150.268 2.94378C150.609 3.24245 150.951 3.49845 151.292 3.71178C151.932 4.01045 152.359 4.52245 152.572 5.24778C152.7 5.63178 152.935 6.12245 153.276 6.71978C153.703 7.53045 153.852 8.76778 153.724 10.4318C153.596 12.0531 153.255 13.3544 152.7 14.3358C152.401 14.7624 152.124 15.2531 151.868 15.8078C151.697 16.1918 151.185 16.7678 150.332 17.5358C149.479 18.3038 148.967 18.9864 148.796 19.5838C148.668 20.0531 148.433 20.5224 148.092 20.9918C147.751 21.4184 146.876 22.3998 145.468 23.9358C144.401 25.0451 143.633 25.7064 143.164 25.9198C142.737 26.0904 142.225 26.4104 141.628 26.8798C140.988 27.3491 140.199 27.6051 139.26 27.6478C138.364 27.6478 137.575 27.4344 136.892 27.0078C136.252 26.5811 135.932 26.0478 135.932 25.4078C135.932 24.9811 136.167 24.5118 136.636 23.9998C137.148 23.4451 137.745 23.0398 138.428 22.7838C138.94 22.6131 139.345 22.3784 139.644 22.0798C139.985 21.7811 140.561 21.0984 141.372 20.0318C142.14 19.0504 142.503 18.4531 142.46 18.2398C142.417 18.0264 141.905 17.9624 140.924 18.0478C139.943 18.1758 138.364 18.2184 136.188 18.1758C134.993 18.1331 134.247 17.7918 133.948 17.1518C133.649 16.4691 133.863 15.5731 134.588 14.4638C134.631 14.4638 134.673 14.4211 134.716 14.3358C135.1 13.6958 135.505 13.3331 135.932 13.2478C136.401 13.1198 137.767 13.0558 140.028 13.0558C140.241 13.0558 140.391 13.0558 140.476 13.0558C140.903 13.0558 141.479 13.0558 142.204 13.0558C144.636 13.0131 146.065 12.9918 146.492 12.9918C146.919 12.9491 147.175 12.8424 147.26 12.6718C147.303 12.6291 147.324 12.5864 147.324 12.5438C147.537 12.2878 147.665 11.8824 147.708 11.3278C147.751 10.8158 147.857 10.4318 148.028 10.1758C148.156 9.96245 148.199 9.64245 148.156 9.21578C148.156 8.78911 148.071 8.42645 147.9 8.12778C147.644 7.65845 146.983 7.29578 145.916 7.03978C144.849 6.78378 143.932 6.76245 143.164 6.97578C142.396 7.23178 141.457 7.29578 140.348 7.16778C139.239 6.99711 138.151 7.03978 137.084 7.29578C135.932 7.59445 135.121 7.65844 134.652 7.48778C134.225 7.31711 133.969 6.86911 133.884 6.14378C133.841 5.80245 133.756 5.37578 133.628 4.86378C133.5 4.13845 133.927 3.49845 134.908 2.94378C135.932 2.34645 137.148 2.02645 138.556 1.98378C139.708 1.98378 140.54 1.89845 141.052 1.72778ZM163.004 3.58378C163.473 3.11445 164.199 3.05045 165.18 3.39178C166.204 3.73311 166.823 4.22378 167.036 4.86378C167.591 6.57045 167.655 8.04245 167.228 9.27978C166.972 10.0904 166.887 10.9011 166.972 11.7118C167.057 12.3944 167.079 13.3544 167.036 14.5918C167.036 15.7864 166.993 16.4478 166.908 16.5758C166.865 16.6611 166.823 17.4718 166.78 19.0078C166.78 20.6291 166.716 22.0371 166.588 23.2318C166.46 24.3838 166.289 24.9598 166.076 24.9598C166.033 24.9598 165.713 25.1518 165.116 25.5358C164.263 26.0904 163.473 26.2184 162.748 25.9198C162.023 25.5784 161.703 24.9598 161.788 24.0638C161.873 23.5091 161.809 22.9544 161.596 22.3998C161.383 21.9304 161.297 20.7784 161.34 18.9438C161.383 17.1944 161.319 16.2344 161.148 16.0638C161.02 15.8504 160.209 15.7651 158.716 15.8078C157.436 15.8078 156.647 15.7651 156.348 15.6798C156.049 15.5944 155.9 15.3384 155.9 14.9118C155.9 14.5704 155.836 14.2078 155.708 13.8238C155.58 13.3544 155.623 12.9704 155.836 12.6718C156.049 12.3304 156.689 11.7971 157.756 11.0718C158.055 10.8158 158.588 10.6238 159.356 10.4958C160.252 10.3251 160.871 10.1118 161.212 9.85578C161.553 9.59978 161.724 9.21578 161.724 8.70378C161.724 8.36245 161.809 7.93578 161.98 7.42378C162.151 6.82645 162.215 6.31445 162.172 5.88778C162.044 4.99178 162.321 4.22378 163.004 3.58378ZM150.972 29.1838C151.612 28.9278 152.06 28.8211 152.316 28.8638C152.615 28.8638 152.892 29.0344 153.148 29.3758C153.447 29.7598 153.724 29.9731 153.98 30.0158C154.321 30.1438 154.513 30.3571 154.556 30.6558C154.641 30.9118 154.62 31.4238 154.492 32.1918C154.236 33.2584 154.449 34.1331 155.132 34.8158C155.815 35.4984 157.287 36.3091 159.548 37.2478C160.913 37.8024 161.916 38.2931 162.556 38.7198C163.153 39.1038 163.601 39.2958 163.9 39.2958C164.327 39.2958 164.711 39.6158 165.052 40.2558C165.393 40.8958 165.564 41.5998 165.564 42.3678C165.564 43.1358 165.052 43.6904 164.028 44.0318C163.004 44.4158 162.129 44.3731 161.404 43.9038C160.977 43.6051 160.487 43.3918 159.932 43.2638C159.42 43.1784 158.716 42.8371 157.82 42.2398C156.967 41.6851 156.22 41.2371 155.58 40.8958C154.94 40.5971 154.343 40.1704 153.788 39.6158C153.276 39.0184 152.764 38.6344 152.252 38.4638C151.655 38.2931 151.143 38.1011 150.716 37.8878C150.119 37.5891 149.649 37.4611 149.308 37.5038C148.967 37.5464 148.54 37.8024 148.028 38.2718C147.431 38.8264 146.812 39.3171 146.172 39.7438C145.532 40.1278 144.892 40.6184 144.252 41.2158C143.612 41.8131 143.079 42.1331 142.652 42.1758C142.183 42.2611 141.777 42.4531 141.436 42.7518C140.796 43.1784 140.135 43.2638 139.452 43.0078C138.812 42.7518 138.321 42.1971 137.98 41.3438C137.724 40.7464 137.788 40.0424 138.172 39.2318C138.599 38.4211 139.196 37.8238 139.964 37.4398C140.391 37.2264 140.796 36.9704 141.18 36.6718C141.479 36.4158 142.14 36.0318 143.164 35.5198C144.188 35.0504 144.828 34.6664 145.084 34.3678C145.34 34.0264 145.873 33.5998 146.684 33.0878C148.519 31.8078 149.564 30.8478 149.82 30.2078C149.948 29.9091 150.076 29.6958 150.204 29.5678C150.332 29.4398 150.588 29.3118 150.972 29.1838Z" fill="black"/>
</svg>
